<mxfile host="app.diagrams.net" modified="2024-02-09T02:26:03.827Z" agent="Mozilla/5.0 (Windows NT 10.0; Win64; x64) AppleWebKit/537.36 (KHTML, like Gecko) Chrome/121.0.0.0 Safari/537.36 Edg/121.0.0.0" version="23.0.2" etag="lobIEpqZXa_YlfnFsCR8" type="github">
  <diagram name="第 1 页" id="U_HhLAPaVu63GRcEfQPl">
    <mxGraphModel>
      <root>
        <mxCell id="0" />
        <mxCell id="1" parent="0" />
      </root>
    </mxGraphModel>
  </diagram>
</mxfile>
